<svg width="24" height="24" viewBox="0 0 24 24" fill="none" xmlns="http://www.w3.org/2000/svg">
<path d="M12 17.5C13.25 17.5 14.3127 17.0627 15.188 16.188C16.0627 15.3127 16.5 14.25 16.5 13C16.5 11.75 16.0627 10.6873 15.188 9.812C14.3127 8.93733 13.25 8.5 12 8.5C10.75 8.5 9.68733 8.93733 8.812 9.812C7.93733 10.6873 7.5 11.75 7.5 13C7.5 14.25 7.93733 15.3127 8.812 16.188C9.68733 17.0627 10.75 17.5 12 17.5ZM12 16.5L10.9 14.1L8.5 13L10.9 11.9L12 9.5L13.1 11.9L15.5 13L13.1 14.1L12 16.5ZM4 21C3.45 21 2.97933 20.8043 2.588 20.413C2.196 20.021 2 19.55 2 19V7C2 6.45 2.196 5.97933 2.588 5.588C2.97933 5.196 3.45 5 4 5H7.15L9 3H15L16.85 5H20C20.55 5 21.021 5.196 21.413 5.588C21.8043 5.97933 22 6.45 22 7V19C22 19.55 21.8043 20.021 21.413 20.413C21.021 20.8043 20.55 21 20 21H4Z" fill="#1F2E3B"/>
</svg>
