<svg width="24" height="24" viewBox="0 0 21 18" fill="none" xmlns="http://www.w3.org/2000/svg">
<path d="M6.3 18C5.66667 18 5.125 17.7707 4.675 17.312C4.225 16.854 4 16.3083 4 15.675V6.4L2.175 2H1C0.716667 2 0.479333 1.904 0.288 1.712C0.096 1.52067 0 1.28333 0 1C0 0.716667 0.096 0.479 0.288 0.287C0.479333 0.0956666 0.716667 0 1 0H2.85C3.05 0 3.23333 0.0583333 3.4 0.175C3.56667 0.291667 3.69167 0.441667 3.775 0.625L5.175 4H19.95C20.3333 4 20.625 4.15833 20.825 4.475C21.025 4.79167 21.0333 5.11667 20.85 5.45L18 11.025C18.85 11.1583 19.5627 11.55 20.138 12.2C20.7127 12.85 21 13.6167 21 14.5C21 15.4667 20.6627 16.2917 19.988 16.975C19.3127 17.6583 18.4917 18 17.525 18C16.5417 18 15.7127 17.6583 15.038 16.975C14.3627 16.2917 14.025 15.4667 14.025 14.5C14.025 14.1667 14.0667 13.8583 14.15 13.575C14.2333 13.2917 14.35 13.0167 14.5 12.75L11.225 12.45L8.225 16.95C8.00833 17.2833 7.729 17.5417 7.387 17.725C7.04567 17.9083 6.68333 18 6.3 18ZM6.325 15.975C6.35833 15.975 6.43333 15.9333 6.55 15.85L8.975 12.25C8.15833 12.1667 7.51667 11.9707 7.05 11.662C6.58333 11.354 6.23333 11.0333 6 10.7V15.7C6 15.7833 6.03333 15.85 6.1 15.9C6.16667 15.95 6.24167 15.975 6.325 15.975V15.975ZM17.5 16C17.9333 16 18.2917 15.854 18.575 15.562C18.8583 15.2707 19 14.9167 19 14.5C19 14.0667 18.8583 13.7083 18.575 13.425C18.2917 13.1417 17.9333 13 17.5 13C17.0833 13 16.7293 13.1417 16.438 13.425C16.146 13.7083 16 14.0667 16 14.5C16 14.9167 16.146 15.2707 16.438 15.562C16.7293 15.854 17.0833 16 17.5 16Z" fill="#000"/>
</svg>
