<svg width="24" height="24" viewBox="0 0 24 24" fill="none" xmlns="http://www.w3.org/2000/svg">
<path d="M14.25 10.875H13.125V5.625H13.5C14.1954 5.62747 14.8617 5.90483 15.3534 6.39657C15.8452 6.88832 16.1225 7.55457 16.125 8.25C16.125 8.54837 16.2435 8.83452 16.4545 9.0455C16.6655 9.25647 16.9516 9.375 17.25 9.375C17.5484 9.375 17.8345 9.25647 18.0455 9.0455C18.2565 8.83452 18.375 8.54837 18.375 8.25C18.375 6.95707 17.8614 5.71709 16.9471 4.80285C16.0329 3.88861 14.7929 3.375 13.5 3.375H13.125V2.25C13.125 1.95163 13.0065 1.66548 12.7955 1.4545C12.5845 1.24353 12.2984 1.125 12 1.125C11.7016 1.125 11.4155 1.24353 11.2045 1.4545C10.9935 1.66548 10.875 1.95163 10.875 2.25V3.375H10.125C8.83207 3.375 7.59209 3.88861 6.67785 4.80285C5.76361 5.71709 5.25 6.95707 5.25 8.25C5.25 9.54293 5.76361 10.7829 6.67785 11.6971C7.59209 12.6114 8.83207 13.125 10.125 13.125H10.875V18.375H9.75C9.05457 18.3725 8.38832 18.0952 7.89657 17.6034C7.40483 17.1117 7.12747 16.4454 7.125 15.75C7.125 15.4516 7.00647 15.1655 6.7955 14.9545C6.58452 14.7435 6.29837 14.625 6 14.625C5.70163 14.625 5.41548 14.7435 5.2045 14.9545C4.99353 15.1655 4.875 15.4516 4.875 15.75C4.875 17.0429 5.38861 18.2829 6.30285 19.1971C7.21709 20.1114 8.45707 20.625 9.75 20.625H10.875V21.75C10.875 22.0484 10.9935 22.3345 11.2045 22.5455C11.4155 22.7565 11.7016 22.875 12 22.875C12.2984 22.875 12.5845 22.7565 12.7955 22.5455C13.0065 22.3345 13.125 22.0484 13.125 21.75V20.625H14.25C15.5429 20.625 16.7829 20.1114 17.6971 19.1971C18.6114 18.2829 19.125 17.0429 19.125 15.75C19.125 14.4571 18.6114 13.2171 17.6971 12.3029C16.7829 11.3886 15.5429 10.875 14.25 10.875V10.875ZM10.125 10.875C9.42881 10.875 8.76113 10.5984 8.26884 10.1062C7.77656 9.61387 7.5 8.94619 7.5 8.25C7.5 7.55381 7.77656 6.88613 8.26884 6.39384C8.76113 5.90156 9.42881 5.625 10.125 5.625H10.875V10.875H10.125ZM14.25 18.375H13.125V13.125H14.25C14.9462 13.125 15.6139 13.4016 16.1062 13.8938C16.5984 14.3861 16.875 15.0538 16.875 15.75C16.875 16.4462 16.5984 17.1139 16.1062 17.6062C15.6139 18.0984 14.9462 18.375 14.25 18.375V18.375Z" fill="#1F2E3B"/>
</svg>
