<svg width="30" height="30" viewBox="0 0 30 30" fill="none" xmlns="http://www.w3.org/2000/svg">
<path d="M19.7726 15L29.0116 5.76103C30.3295 4.44311 30.3295 2.30637 29.0116 0.988443C27.6936 -0.329481 25.557 -0.329481 24.239 0.988443L15 10.2274L5.76103 0.988443C4.44311 -0.329481 2.30637 -0.329481 0.988443 0.988443C-0.329481 2.30637 -0.329481 4.44311 0.988443 5.76103L10.2274 15L0.988443 24.239C-0.329481 25.5569 -0.329481 27.6936 0.988443 29.0116C1.64741 29.6705 2.51105 30 3.3747 30C4.23835 30 5.10207 29.6705 5.76096 29.0116L15 19.7726L24.239 29.0116C24.8979 29.6705 25.7616 30 26.6252 30C27.4889 30 28.3525 29.6705 29.0115 29.0116C30.3294 27.6936 30.3294 25.5569 29.0115 24.239L19.7726 15Z" fill="white"/>
</svg>
