<svg width="24" height="24" viewBox="0 0 24 24" fill="none" xmlns="http://www.w3.org/2000/svg">
<path d="M17 10.95C16.7167 10.95 16.4793 10.854 16.288 10.662C16.096 10.4707 16 10.2333 16 9.95001V7.95001H14C13.7167 7.95001 13.4793 7.85401 13.288 7.66201C13.096 7.47068 13 7.23335 13 6.95001C13 6.66668 13.096 6.42901 13.288 6.23701C13.4793 6.04568 13.7167 5.95001 14 5.95001H16V3.95001C16 3.66668 16.096 3.42901 16.288 3.23701C16.4793 3.04568 16.7167 2.95001 17 2.95001C17.2833 2.95001 17.5207 3.04568 17.712 3.23701C17.904 3.42901 18 3.66668 18 3.95001V5.95001H20C20.2833 5.95001 20.5207 6.04568 20.712 6.23701C20.904 6.42901 21 6.66668 21 6.95001C21 7.23335 20.904 7.47068 20.712 7.66201C20.5207 7.85401 20.2833 7.95001 20 7.95001H18V9.95001C18 10.2333 17.904 10.4707 17.712 10.662C17.5207 10.854 17.2833 10.95 17 10.95ZM19.95 21C17.8 21 15.7043 20.5207 13.663 19.562C11.621 18.604 9.81267 17.3373 8.238 15.762C6.66267 14.1873 5.396 12.379 4.438 10.337C3.47933 8.29568 3 6.20001 3 4.05001C3 3.75001 3.1 3.50001 3.3 3.30001C3.5 3.10001 3.75 3.00001 4.05 3.00001H8.1C8.33333 3.00001 8.54167 3.07501 8.725 3.22501C8.90833 3.37501 9.01667 3.56668 9.05 3.80001L9.7 7.30001C9.73333 7.53335 9.72933 7.74568 9.688 7.93701C9.646 8.12901 9.55 8.30001 9.4 8.45001L7 10.9C7.7 12.1 8.575 13.225 9.625 14.275C10.675 15.325 11.8333 16.2333 13.1 17L15.45 14.65C15.6 14.5 15.796 14.3873 16.038 14.312C16.2793 14.2373 16.5167 14.2167 16.75 14.25L20.2 14.95C20.4333 15 20.625 15.1123 20.775 15.287C20.925 15.4623 21 15.6667 21 15.9V19.95C21 20.25 20.9 20.5 20.7 20.7C20.5 20.9 20.25 21 19.95 21Z" fill="#1F2E3B"/>
</svg>
