<svg width="24" height="24" viewBox="0 0 24 24" fill="none" xmlns="http://www.w3.org/2000/svg">
<path d="M21.1189 13.35C21.1189 11.2564 22.1516 9.93375 22.1617 9.92062L22.875 9.024L21.7811 8.7135C19.8671 8.17763 19.1509 5.60963 18.6622 2.91412C18.5766 2.44552 18.5296 1.97067 18.5216 1.49437L18.5096 0.75H5.38425L5.37375 1.49588C5.36531 1.97208 5.3179 2.44679 5.232 2.91525C4.66687 6.02963 3.92062 8.20763 2.11462 8.7135L1.125 8.991L1.689 9.85837C1.695 9.86812 2.53387 11.2174 2.53387 13.4843C2.53387 17.7611 1.59187 22.2904 1.5825 22.3358L1.39013 23.25H22.5544L22.3046 22.299C22.293 22.2536 21.1189 17.7337 21.1189 13.35M2.31487 9.44325C4.55775 8.81512 5.39175 6.23137 5.96887 3.051C6.06412 2.52262 6.1155 2.0055 6.12225 1.50675H7.47225C7.4468 1.67657 7.43402 1.84804 7.434 2.01975C7.434 4.1655 9.45525 5.90475 11.9464 5.90475C14.4401 5.90475 16.461 4.1655 16.461 2.01975C16.461 1.84575 16.4482 1.67475 16.4224 1.50675H17.7724C17.7803 2.0055 17.8294 2.52225 17.9254 3.051C18.0379 3.67125 18.1609 4.26788 18.3015 4.83263L2.82975 19.4183C3.06112 17.7454 3.28275 15.5932 3.28275 13.4846C3.28275 10.9316 2.31487 9.44325 2.31487 9.44325M5.2395 22.4929L19.9238 8.39475C20.3723 8.89237 20.9134 9.25612 21.5812 9.44325C21.5812 9.44325 20.3704 10.932 20.3704 13.35C20.3704 17.8905 21.5812 22.4932 21.5812 22.4932H5.2395V22.4929Z" fill="#B1A1A1"/>
</svg>
