<svg width="24" height="24" viewBox="0 0 24 24" fill="none" xmlns="http://www.w3.org/2000/svg">
<path d="M20.7476 20.2477C20.6336 20.2477 20.5212 20.2218 20.4188 20.1718C20.3163 20.1219 20.2266 20.0492 20.1565 19.9594C19.0849 18.5874 18.0907 17.5285 16.7196 16.8188C15.4507 16.164 13.857 15.8222 11.7476 15.7585V19.4977C11.7471 19.6441 11.7039 19.7872 11.6231 19.9093C11.5423 20.0313 11.4276 20.1271 11.293 20.1848C11.1584 20.2425 11.0099 20.2595 10.8658 20.2338C10.7217 20.208 10.5883 20.1407 10.482 20.0401L2.23196 12.1651C2.15865 12.095 2.10029 12.0109 2.06042 11.9176C2.02056 11.8244 2 11.7241 2 11.6227C2 11.5213 2.02056 11.421 2.06042 11.3278C2.10029 11.2346 2.15865 11.1504 2.23196 11.0804L10.482 3.20537C10.5883 3.10472 10.7217 3.03738 10.8658 3.01167C11.0099 2.98595 11.1584 3.00297 11.293 3.06063C11.4276 3.11829 11.5423 3.21407 11.6231 3.33616C11.7039 3.45825 11.7471 3.60132 11.7476 3.74771V7.51458C15.2229 7.67443 17.8123 8.96349 19.4515 11.3522C20.8095 13.3308 21.4976 16.0711 21.4976 19.4977C21.4976 19.6966 21.4186 19.8874 21.2779 20.028C21.1373 20.1687 20.9465 20.2477 20.7476 20.2477Z" fill="#B1A1A1"/>
</svg>
