<svg width="36" height="36" viewBox="0 0 36 36" fill="none" xmlns="http://www.w3.org/2000/svg">
<path d="M16.5 30H9.75C7.475 30 5.5315 29.2125 3.9195 27.6375C2.3065 26.0625 1.5 24.1375 1.5 21.8625C1.5 19.9125 2.0875 18.175 3.2625 16.65C4.4375 15.125 5.975 14.15 7.875 13.725C8.5 11.425 9.75 9.5625 11.625 8.1375C13.5 6.7125 15.625 6 18 6C20.925 6 23.406 7.0185 25.443 9.0555C27.481 11.0935 28.5 13.575 28.5 16.5C30.225 16.7 31.6565 17.4435 32.7945 18.7305C33.9315 20.0185 34.5 21.525 34.5 23.25C34.5 25.125 33.844 26.719 32.532 28.032C31.219 29.344 29.625 30 27.75 30H19.5V19.275L21.9 21.6L24 19.5L18 13.5L12 19.5L14.1 21.6L16.5 19.275V30Z" fill="#444444"/>
</svg>
